<?xml version="1.0" encoding="UTF-8" standalone="no"?>
<!DOCTYPE svg PUBLIC "-//W3C//DTD SVG 1.1//EN" "http://www.w3.org/Graphics/SVG/1.1/DTD/svg11.dtd">
<svg width="100%" height="100%" viewBox="0 0 180 238" version="1.1" xmlns="http://www.w3.org/2000/svg" xmlns:xlink="http://www.w3.org/1999/xlink" xml:space="preserve" xmlns:serif="http://www.serif.com/" style="fill-rule:evenodd;clip-rule:evenodd;stroke-linejoin:round;stroke-miterlimit:1.41421;">
    <g transform="matrix(1,0,0,1,0,-0.00543758)">
        <circle cx="89.97" cy="109.3" r="14.61" style="fill:white;"/>
    </g>
    <g transform="matrix(1,0,0,1,0,-0.00543758)">
        <circle cx="26.85" cy="164.11" r="26.85" style="fill:white;"/>
    </g>
    <g transform="matrix(1,0,0,1,0,-0.00543758)">
        <circle cx="152.98" cy="164.11" r="26.86" style="fill:white;"/>
    </g>
    <g transform="matrix(1,0,0,1,0,-0.00543758)">
        <circle cx="60.87" cy="210.74" r="26.99" style="fill:white;"/>
    </g>
    <g transform="matrix(1,0,0,1,-26.67,-14.4554)">
        <path d="M102.07,90.48C102.07,90.48 100.19,55.19 121.29,33.75C142.39,12.31 178,14.52 178,14.52C178,14.52 183.5,48.58 159.84,72.32C136.18,96.06 102.07,90.48 102.07,90.48Z" style="fill:white;fill-rule:nonzero;"/>
    </g>
    <g transform="matrix(1,0,0,1,-26.67,-14.4554)">
        <path d="M71.7,96.84C71.697,96.84 71.693,96.84 71.69,96.84C56.928,96.84 44.78,108.988 44.78,123.75C44.78,138.512 56.928,150.66 71.69,150.66C86.452,150.66 98.6,138.512 98.6,123.75C98.6,108.991 86.459,96.845 71.7,96.84ZM71.7,141.19C62.133,141.19 54.26,133.317 54.26,123.75C54.26,114.183 62.133,106.31 71.7,106.31C81.267,106.31 89.14,114.183 89.14,123.75C89.14,133.317 81.267,141.19 71.7,141.19Z" style="fill:white;fill-rule:nonzero;"/>
    </g>
    <g transform="matrix(1,0,0,1,-26.67,-14.4554)">
        <path d="M145.74,198.21C130.928,198.21 118.74,210.398 118.74,225.21C118.74,240.022 130.928,252.21 145.74,252.21C160.552,252.21 172.74,240.022 172.74,225.21C172.74,210.398 160.552,198.21 145.74,198.21ZM145.74,241.62C136.732,241.62 129.32,234.208 129.32,225.2C129.32,216.192 136.732,208.78 145.74,208.78C154.748,208.78 162.16,216.192 162.16,225.2C162.155,234.204 154.744,241.61 145.74,241.61L145.74,241.62Z" style="fill:white;fill-rule:nonzero;"/>
    </g>
    <g transform="matrix(1,0,0,1,-26.67,-14.4554)">
        <path d="M161.67,96.9C146.941,96.9 134.82,109.021 134.82,123.75C134.82,138.479 146.941,150.6 161.67,150.6C176.399,150.6 188.52,138.479 188.52,123.75C188.52,109.021 176.399,96.9 161.67,96.9ZM161.67,141.19C152.103,141.19 144.23,133.317 144.23,123.75C144.23,114.183 152.103,106.31 161.67,106.31C171.237,106.31 179.11,114.183 179.11,123.75C179.11,133.317 171.237,141.19 161.67,141.19Z" style="fill:white;fill-rule:nonzero;"/>
    </g>
    <g transform="matrix(1,0,0,1,0,-0.00543758)">
        <circle cx="90.32" cy="158.34" r="20.83" style="fill:white;"/>
    </g>
</svg>
